/* XPM */
static char * pixmap[] = {
/* width height num_colors chars_per_pixel */
"100 40 20 1",
/* colors */
"  c None",
"! c #ffffff",
"# c #fefefe",
"$ c #f9f6ef",
"% c #f9f2ef",
"& c #f98d5a",
"' c #f7f9ef",
"( c #f6ce74",
") c #eff9f5",
"* c #dbf5ea",
"+ c #d73601",
", c #c6eef4",
"- c #c6e9f4",
". c #8ff674",
"/ c #26fa00",
"0 c #1b0e07",
"1 c #111005",
"2 c #110605",
"3 c #090503",
"4 c #030904",
/* pixels */
"!!!!!!!!!!!!!!!!!!!!!!!!!!!!!!!!!!!!!!!!!!!!!!!!!!!!!!!!!!!!!!!!!!!!!!!!!!!!!!!!!!!!!!!!!!!!!!!!!!!!",
"!!!!!!!!!!!!!!!!!!!!!!!!!!!!!!!!!!!!!!!!!!!!!!!!!!!!!!!!!!!!!!!!!!!!!!!!!!!!!!!!!!!!!!!!!!!!!!!!!!!!",
"!!!!!!!!!!!!!!!!!!!!!!!!!!!!!!!!!!!!!!!!!!!!!!!!!!!!!!!!!!!!!!!!!!!!!!!!!!!!!!!!!!!!!!!!!!!!!!!!!!!!",
"!!!!!!!!!!!!!!!!!!!!!!!!!!!!!!!!!!!!!!!!!!!!!!!!!!!!!!!!!!!!!!!!!!!!!!!!!!!!!!!!!!!!!!!!!!!!!!!!!!!!",
"!!!!!!!!!!!!!!!!!!!!!!!!!!!!!!!!!!!!!!!!!!!!!!!!!!!!!!!!!!!!!!!!!!!!!!!!!!!!!!!!!!!!!!!!!!!!!!!!!!!!",
"!!!!!!!!!!!!!!!!!!!!!!!!!!!!!!!!!!!!!!!!!!!!!!!!!!!!!!!!!!!!!!!!!!!!!!!!!!!!!!!!!!!!!!!!!!!!!!!!!!!!",
"!!!!!!!!//!!!!!!!!!!!!!!!!!!!!!!!!!!!!!!!!!!!!!!!!!!!!!!!!!!!!!!!!!!!!!!!!!!!!!!!!!!!!!!!!!!!!!!!!!!",
"!!!!!!!!/%.!!!!!!!!!!!!!!!!!!!!!!!!!!!!!!!!!!!!!!!!!!!!!!!!!!!!!!!!!!!!!!!!!!!!+++!!!!!!!!!!!!!!!!!!",
"!!!!!!!/.%.!!!!!!!!!!!!!!!!!!!!!!!!!!!!!!!!!!!!!!!!!!!!!!!!!!!!!!!!!!!!!!!!!!!+&'&+!!!!!!!!!!!!!!!!!",
"!!!!!!!/.%/.!!!!!!!!!!!!!!!!!!!!!!!!!!!!!!!!!!!!!!!!!!!!!!!!!!!!!!!!!!!!!!!!!!+&'&+!!!!!!!!!!!!!!!!!",
"!!!!!!!!/.%.!!!!!!!!!!!!!!!!!!!!!!!!!!!!!!!!!!!!!!!!!!!!!!!!!!!!!!!!!!!!!!!!!+&'&+!!!!!!!!!!!!!!!!!!",
"!!!!!!!!/.%/.!!!!!!!!!!!!!!!!!!!!!!!!!!!!!!!!!!!!!!!!!!!!!!!!!!!!!!!!!!!!!!!!+&'&+!!!!!!!!!!!!!!!!!!",
"!!!!!!!!!/.%.!!!!!!!!!!!!!!!!!!!!!!!!!!!!!!!!!!!!!!!!!!!!!!!!!!!!!!!!!!!!!!!!+&'+!!!!!!!!!!!!!!!!!!!",
"!!!!!!!!!/.%.!!!!!!!!!!!!!!!!!!!!!!!!!!!!!!!!!!!!!!!!!!!!!!!!!!!!!!!!!!!!!!!+&'&+!!!!!!!!!!!!!!!!!!!",
"!!!!!!!!!!/.%.!!!!!!!!!!!!!!!!!!!!!!!!!!!!!!!!!!!!!!!!!!!!!!!!!!!!!!!!!!!!!!+&'&+!!!!!!!!!!!!!!!!!!!",
"!!!!!!!!!!/.%.!!!!!!!!!!!!!!!!!!!!!!!!!!!!!!!!!!!!!!!!!!!!!!!!!!!!!!!!!!!!!!+&'+!!!!!!!!!!!!!!!!!!!!",
"!!!!!!!!!!!/)%.!!!!!!!!!!!!!!!!!!!!!!!!!!!!!!!!!!!!!!!!!!!!!!!!!!!!!!!!!!!!!+'&+!!!!!!!!!!!!!!!!!!!!",
"!!!!!!!!!!!/.).!!!!!!!!!!!!!!!!!!!!!!!!!!!!!!!!!!!!!!!!!!!!!!!!!!!!!!!!!!!!+&'+!!!!!!!00000!!!!!!!!!",
"!!!!!!!!!!!!/)./!!!!!!!!!!!!!!!!!!!!!!!!!!!!!!!!!!!!!!!!!!!!!!!!!!!!!!!!!!!+&'+!!!!0000000000!!!!!!!",
"!!!!!!!!!!!!/.).!!!!!!!!!!!!!!!!!!!!!!!!!!!!!!!!!!!!!!!!!!!!!!!!!!!!!!!!!!!+'&+!!!00000000000!!!!!!!",
"!!!!!!!!!!!!!/)./!!!!!!!!!!!!!!!!!!!!!!!!!!!!!!!!!!!!!!!!!!!!!!!!!!!!!!!!!+&'+!!!0000000000000!!!!!!",
"!!!!!!!!!!!!!/.).!!!!!!!!!!!!!!!!!!!!!!!!!!!!!!!!!!!!!!!!!!!!!!!!!!!!!!!!!+'&+!!!0000000000000!!!!!!",
"!!!!!!!!!!!!!!/)./!!!!!!!!!!!!!!!!!!!!!!!!!!!!!!!!!!!!!!!!!!!!!!!!!!!!!!!!+'&+!!000000000000000!!!!!",
"!!!!!!00000!!!/.).!!!!!!!!!!!!!!!!!!!!!!!!!!!!!!!!!!!!!!!!!!!!!!!!!!!!!!!+&'+!!!000000000000000!!!!!",
"!!!!00(((((00!!/)./!!!!!!!!!!!!!!!!!!!!!!!!!!!!!!!!!!!!!!!!!!!!!!!!!!!!!!+'&+!!!0000000000000000!!!!",
"!!!0(((((((((0!/.)/!!!!!!!!!!!!!!!!!!!!!!!!!!!!!!!!!!!!!!!!!!!!!!!!!!!!!!+'+!!!!0000000000000000!!!!",
"!!0((((((((11(0!/)./!!!!!!!!!!!!!!!!!!!!!!!!!!!!!!!!!!!!!!!!!!!!!!!!!!!!!+'+!!!!00000000000000000!!!",
"!0((((((((((11(0/.)/!!!!!!!!!!!!!!!!!!!!!!!!!!!!!!!!!!!!!!!!!!!!!!!!!!!!+'&+!!!!00000000000000000!!!",
"!0((((((((11(110!/)./!!!!!!!!!!!!!!!!!!!!!!!!!!!!!!!!!!!!!!!!!!!!!!!!!!!+'+!!!!!$$$$0000000000000!!!",
"0(((((((((11((((0/.)/!!!!!!!!!!!!!!!!!!!!!!!!!!!!!!!!!!!!!!!!!!!!!!!!!!!+'+!!!!!00$$$0000000000000!!",
"0(((((((((((((((0!/111!!!!!!!!!!!!!!!!!!!!!!!!!!!!!!!!!!!!!!!!!!!!!!!!!+'+!!!!!!00$0$$000000000000!!",
"0(((((((((((((((0!1((1!!!!!!!!!!!!!!!!!!!!!!!!!!!!!!!!!!!!!!!!!!!!!!!!!+'+!!!!!!00$00$000000000000!!",
"0(((((((((((((((01((111!!!!!!!!!!!!!!!!!!!!!!!!!!!!!!!!!!!!!!!!!!!!!!!!444!!!!!!$$$00$000000000000!!",
"0(((((((((((((((0((1,,1!!!!!!!!!!!!!!!!!!!!!!!!!!!!!!!!!!!!!!!!!!!!!!!!4-44!!!!!00000$000000000000!!",
"!0(((((((2222220111!1111!!!!!!!!!!!!!!!!!!!!!!!!!!!!!!!!!!!!!!!!!!!!!!44-444!!!!!0000$000000000000!!",
"!0((((((2#2#2#20!!!!!1,11!!!!!!!!!!!!!!!!!!!!!!!!!!!!!!!!!!!!!!!!!!!!!4--44444!!!!033$0000000000000!",
"!!0(((((2#2#2#0!!!!!!11!!!!!!!!!!!!!!!!!!!!!!!!!!!!!!!!!!!!!!!!!!!!!!!4-4!4444!333333$0000000000000!",
"!!!0(((((22#20!!!!!!!!!!!!!!!!!!!!!!!!!!!!!!!!!!!!!!!!!!!!!!!!!!!!!!!4444!!4444333330$00000000000000",
"!!!!00(((((00!!!!!!!!!!!!!!!!!!!!!!!!!!!!!!!!!!!!!!!!!!!!!!!!!!!!!!!!444!!!!444333333*00000000000000",
"!!!!!!00000!!!!!!!!!!!!!!!!!!!!!!!!!!!!!!!!!!!!!!!!!!!!!!!!!!!!!!!!!!!!!!!!!!!!333333$00000000000000"
};
